<?xml version="1.0" standalone="no"?>
<!DOCTYPE svg PUBLIC "-//W3C//DTD SVG 20010904//EN"
 "http://www.w3.org/TR/2001/REC-SVG-20010904/DTD/svg10.dtd">
<svg version="1.0" xmlns="http://www.w3.org/2000/svg"
 width="768.000000pt" height="768.000000pt" viewBox="0 0 768.000000 768.000000"
 preserveAspectRatio="xMidYMid meet">
<metadata>
Created by potrace 1.11, written by Peter Selinger 2001-2013
</metadata>
<g transform="translate(0.000000,768.000000) scale(0.100000,-0.100000)"
fill="#000000" stroke="none">
<path d="M3785 6740 c-57 -21 -228 -83 -458 -163 -87 -31 -162 -59 -167 -62
-6 -3 -18 -8 -27 -10 -18 -4 -1010 -355 -1073 -380 -19 -8 -262 -95 -540 -194
-278 -99 -513 -183 -523 -186 -14 -6 -16 -15 -12 -51 3 -24 7 -63 10 -86 6
-53 14 -121 20 -168 2 -19 7 -60 10 -90 3 -30 8 -71 10 -90 3 -19 7 -62 10
-95 3 -33 8 -67 10 -75 2 -8 7 -49 10 -90 4 -41 9 -83 10 -92 2 -9 7 -48 10
-85 4 -37 9 -76 10 -85 2 -9 7 -48 10 -85 4 -37 8 -79 11 -93 2 -14 6 -54 10
-90 3 -36 8 -73 9 -82 2 -9 7 -48 10 -85 4 -37 9 -75 10 -83 2 -8 6 -44 9 -80
4 -36 9 -76 11 -90 2 -14 7 -54 10 -90 3 -36 8 -76 10 -90 2 -14 6 -47 9 -75
12 -107 16 -141 20 -175 3 -19 8 -62 12 -95 9 -87 11 -104 18 -160 3 -27 9
-75 12 -105 3 -30 8 -66 10 -80 2 -14 6 -54 10 -90 3 -36 7 -76 9 -90 2 -14 6
-50 10 -80 3 -30 10 -89 15 -130 5 -41 12 -97 15 -125 8 -70 14 -127 21 -182
3 -27 8 -68 11 -93 2 -25 6 -56 8 -70 1 -14 6 -56 10 -95 4 -38 9 -77 10 -85
2 -8 6 -49 10 -91 4 -42 10 -81 14 -86 7 -10 47 -35 141 -85 102 -56 160 -88
223 -124 32 -19 60 -34 62 -34 2 0 30 -15 62 -34 55 -31 92 -52 231 -127 31
-18 71 -40 87 -49 17 -10 53 -30 80 -45 134 -74 545 -301 580 -321 22 -13 67
-37 100 -55 33 -17 71 -39 85 -48 14 -9 43 -25 65 -36 22 -10 51 -27 65 -36
14 -9 59 -34 100 -56 62 -33 260 -142 488 -269 23 -13 48 -24 54 -24 8 0 320
169 558 303 42 24 110 61 166 92 22 13 193 107 380 210 186 103 359 199 384
212 25 14 50 28 55 33 6 4 44 25 85 47 66 35 261 143 670 370 63 35 118 67
122 71 3 4 9 41 13 82 3 41 8 82 10 90 2 8 6 42 10 75 3 33 8 76 10 95 34 287
82 700 90 780 3 30 10 89 15 130 5 41 12 100 15 130 3 30 10 89 15 130 5 41
12 100 15 130 3 30 17 147 30 260 14 113 27 234 30 270 3 36 8 72 10 80 2 8 7
44 10 80 4 36 8 76 10 90 5 36 19 161 30 260 3 30 10 89 15 130 5 41 12 100
15 130 7 65 14 122 20 170 3 19 7 60 10 90 5 52 12 113 20 170 2 14 7 57 10
95 4 39 8 77 10 85 6 22 18 149 19 194 l1 39 -330 118 c-496 177 -1712 610
-2125 757 -201 71 -374 132 -385 135 -11 3 -42 -3 -70 -13z"/>
</g>
</svg>
